<?xml version="1.0" encoding="utf-8"?>
<!-- Generator: Adobe Illustrator 24.1.1, SVG Export Plug-In . SVG Version: 6.00 Build 0)  -->
<svg version="1.1" id="Layer_1" xmlns="http://www.w3.org/2000/svg" xmlns:xlink="http://www.w3.org/1999/xlink" x="0px" y="0px"
	 viewBox="0 0 257 50" style="enable-background:new 0 0 257 50;" xml:space="preserve">
<style type="text/css">
	.st0{fill:#009EE2;}
</style>
<g>
	<path class="st0" d="M110.4754944,14.6449699c0-1.2862015-0.5631256-1.9310055-1.4211426-2.1176023
		c-0.5348053-0.1882248-0.6164322-0.2948446-0.6164322-0.9113283v-2.332469c0-0.4281578,0.563118-0.6164331,1.3411636-0.6164331
		h11.0992737c0.5347977,0,1.1529083,0.1066198,1.1529083,0.643075v35.3070984c0,0.6447525,0.2132645,0.7513733,0.6964111,0.937973
		c1.3128662,0.4298325,1.3128662,0.6164322,1.3128662,2.8422813c0,0.9113503-0.1599503,1.2878761-1.3128662,1.2878761h-13.2967987
		c-0.9113312,0-0.9113312-0.5098114-0.9113312-1.930954c0-1.769371,0.4015121-1.9026337,0.9113312-2.0909081
		c0.6964111-0.1882744,1.0446167-0.401516,1.0446167-1.1528893V14.6449699z M190.7410736,28.9880142L190.7410736,28.9880142
		c-1.0979309,1.769371-3.1621399,3.378788-3.1621399,3.378788V14.7532673c0-1.2612362,0.5081329-2.8423328,2.3324738-2.8423328
		c1.7676849,0,2.3574829,1.4744768,2.3574829,2.8423328v7.1307201
		C192.2688904,21.8839874,192.4038239,26.3073654,190.7410736,28.9880142 M188.5702362,37.4599495L188.5702362,37.4599495
		c1.1795349-1.1529388,1.6627045-1.1529388,5.8978119-2.9222603c5.12146-2.170887,8.3386078-6.0594883,8.3386078-9.7581348
		c0-7.9637489-1.1795197-16.7554932-12.8419189-16.7554932c-7.2123718,0-15.2277832,5.2547293-15.2277832,21.1788712
		c0,20.4541874,13.9682312,20.8290348,15.7642365,20.8290348c8.2569733,0,12.6003723-6.5942383,12.6003723-11.8489647
		c0-1.9576492-0.8580017-2.06427-2.1992035-2.06427c-3.3504181,0-3.5386963,0-3.6186829,2.0376244
		c-0.0799255,5.8445206-2.9222565,7.7737961-5.8711548,7.7737961c-2.3591614,0-3.8335876-2.0358963-3.8335876-5.1731224
		C187.5789337,40.7570305,187.3906555,38.6394768,188.5702362,37.4599495 M220.5801544,28.9880142L220.5801544,28.9880142
		c-1.1262512,1.769371-3.1904602,3.378788-3.1904602,3.378788V14.7532673c0-1.2612362,0.5098114-2.8423328,2.3324738-2.8423328
		c1.7693176,0,2.3591003,1.4744768,2.3591003,2.8423328v7.1307201
		C222.0812683,21.8839874,222.2429047,26.3073654,220.5801544,28.9880142 M218.3826294,37.4599495L218.3826294,37.4599495
		c1.1795807-1.1529388,1.6610718-1.1529388,5.8978424-2.9222603c5.1197968-2.170887,8.3369446-6.0594883,8.3369446-9.7581348
		c0-7.9637489-1.1795807-16.7554932-12.8152771-16.7554932c-7.2106934,0-15.2261047,5.2547293-15.2261047,21.1788712
		c0,20.4541874,13.9665375,20.8290348,15.7359161,20.8290348c8.2836151,0,12.6003723-6.5942383,12.6003723-11.8489647
		c0-1.9576492-0.8580017-2.06427-2.2258606-2.06427c-3.3237762,0-3.5120392,0-3.5653229,2.0376244
		c-0.0799866,5.8445206-2.9223175,7.7737961-5.8712158,7.7737961c-2.3858032,0-3.8602295-2.0358963-3.8602295-5.1731224
		C217.3896942,40.7570305,217.2030945,38.6394768,218.3826294,37.4599495 M1.552062,49.6837654L1.552062,49.6837654h14.824563
		c0.9646626,0,1.152914-0.6964111,1.152914-1.6077385c0-1.9043121-0.3482056-2.2791367-1.3678322-2.6273651
		c-0.8296976-0.2682533-1.6077385-0.6430779-1.6077385-2.3058281v-9.9729996h3.9402332
		c6.354332,0,14.449688-3.3237762,14.449688-16.0041199c0-9.7314425-5.842865-15.9791546-15.2810631-15.9791546H1.3637867
		c-1.1795557,0-1.1795557,0.509813-1.1795557,1.5560811c0,2.1175513,0,2.3058267,0.9379958,2.7073417
		C2.0068872,5.87814,2.7849531,6.4412885,2.7849531,7.5408916v36.7815247c0,0.4831696-0.6980884,0.7780647-1.1262711,0.9646645
		c-0.6164328,0.2682037-0.7780405,0.3498573-0.9379703,0.5098114c-0.268253,0.2948952-0.3748729,0.48312-0.3748729,1.3144951
		C0.3458388,48.0760269,0.3458388,49.6837654,1.552062,49.6837654 M14.5539684,4.5120125h1.609417
		c2.654007-0.0266933,3.5653591,2.5457087,3.5653591,5.066453v15.0128641c0,2.9222584-1.0996037,5.1481075-2.9755936,5.1481075
		h-2.1991825V4.5120125z M64.4990082,28.2916031L64.4990082,28.2916031c0-16.8637886-9.9463615-20.0809441-15.1477814-20.0809441
		c-4.6916313,0-8.1753349,2.4674091-9.0883408,3.2987595c-4.7449417,4.181818-6.1110916,11.1242628-6.1110916,18.1483612
		c0,16.4340038,8.8734207,20.4291744,14.9045372,20.4291744C53.5063782,50.086956,64.4990082,47.5129013,64.4990082,28.2916031
		 M51.8186607,15.7978573v25.6839542c0,1.6610222-0.456501,4.6099739-2.7623291,4.6099739
		c-2.0909081,0-2.492424-2.1975288-2.492424-4.5033531V16.6025658c0-1.287879,0.2682304-4.5583181,2.7073441-4.5583181
		C51.5237656,12.0442476,51.8186607,14.3233814,51.8186607,15.7978573 M66.4549484,39.7390823l2.0642395,9.3282471
		c0.2682571,0.9113312,1.0729675,0.9929581,2.0109329,0.9929581c2.2525177,0,2.3858032-0.2682266,2.5474167-1.099575
		c0-0.1882782,0.0533066-0.7514,0.483139-0.7514c0.5081635,0,1.3661804,0.2948952,1.9026337,0.5631218
		c2.1442261,1.1262474,3.3787689,1.3145218,4.5583496,1.3145218c3.913559,0,8.6051712-2.7889709,8.6051712-10.0796204
		c0-6.2743568-3.0572052-10.9659863-6.7558517-15.6576176c-0.1882706-0.24156-1.1795807-1.3661785-1.4211426-1.5810966
		l-0.9913025-1.4477825c-0.21492-0.1616325-0.3765259-0.401516-0.3765259-0.4564781
		c-1.3128662-1.6610737-4.1018372-5.3613987-4.1018372-6.7825394c0-0.6964102,0.483139-1.4744768,1.4744492-1.4744768
		c2.0109329,0,4.6383209,2.9489527,6.0061493,4.8532648c0.9913101,1.4211407,1.3944778,1.7426777,3.3237762,1.7426777
		c1.9842606,0,2.2791595-0.321537,1.9842606-1.5011177L85.704567,9.3102121
		c-0.2149124-0.9113274-0.563118-0.9379702-1.5544281-0.9379702c-1.9043121,0-2.3591385,0-2.6806717,0.9113283
		c-0.0816574,0.3748732-0.2415848,0.5631485-0.5897903,0.5631485c-0.2682266,0-0.6447525,0.2149172-1.7976685-0.3748732
		C76.9111252,8.372242,75.7049026,8.21066,74.6319656,8.21066c-2.9222641,0-8.6318436,1.7426786-8.6318436,9.6247721
		c0,4.0485554,1.367836,6.8091812,4.2351074,11.33918c0.6164551,0.966341,1.0462952,1.6627522,2.9755936,4.1035175
		c2.1192322,2.7339859,6.1660538,7.9087868,6.1660538,10.5078316c0,1.4761009-0.8296738,1.6627007-1.6077347,1.6627007
		c-1.6094208,0-2.9222641-0.5364571-5.6296005-4.824894c-0.9113312-1.4744759-1.2878571-1.7960129-2.6273651-1.7960129
		C67.447937,38.8260765,66.2950211,38.9077301,66.4549484,39.7390823 M91.6557312,12.79562v31.0986366
		c0,2.1441956,0.6164322,4.3433762,2.5473862,5.7911835h11.4741516c0.2948914,0,0.3481979-0.3765259,0.3481979-0.8047066
		c0-2.1442184-0.4015121-2.3324699-1.2595291-2.7073441c-0.8313751-0.3764992-1.5827713-0.8047066-1.5827713-2.2791328V12.79562
		h2.5474091c0.4565048,0,0.7513962-0.321537,0.7513962-0.563097V9.2835703c0-0.1882753-0.4565048-0.5098133-0.6714172-0.5098133
		h-2.5457382V1.2681646c0-0.3765-0.4831696-0.5630975-0.992981-0.5630975h-2.8955917
		c-0.5081635,0-0.6964111,0.7496949-0.856369,1.1795301c-1.3678284,5.1198392-6.9441223,6.7025628-8.0170517,6.8891597
		c-0.2415848,0-1.0979309,0.1882753-1.0979309,0.5098133v2.8156395c0,0.321538,0.1865997,0.6964102,0.4814911,0.6964102H91.6557312z
		 M139.0817108,12.6606808V9.4701681c0-0.321538-0.2682648-0.7496948-0.6164703-0.7496948h-11.8506393
		c-0.4281845,0-0.9113541,0.241559-0.9113541,0.3748217v2.6274147c0,0.321538,0.5364838,0.5098133,0.7780685,0.563098
		c0.6964111,0.321537,1.1262436,0.6964102,1.1262436,1.367856v30.6687508c0,0.2948952,0,0.4831696-0.9929581,1.3411636
		c-0.9913101,0.8846855-0.9913101,0.9913063-0.9913101,1.2862015v2.0109329c0,0.4015121,0.509819,0.723053,1.072937,0.723053
		h13.3234406c0.4281921,0,0.7514038-0.3215408,0.7514038-0.6964111v-2.3324699c0-0.2682037,0-0.3764992-0.618103-0.8047066
		c-0.9096527-0.5897942-1.1529236-0.8579941-1.1529236-1.5810966V16.1460876
		c1.5561066-0.7497454,2.5474091-1.0979757,3.137207-1.0979757c1.1262512,0,2.0375671,0.8030806,2.0375671,1.5544538v28.7661171
		c0,2.5207443,1.0196381,3.5920296,1.7693329,4.3167572h10.5095062c0.4015045,0,0.7780609-0.3765259,0.7780609-0.6980858v-2.4390907
		c0-0.2682533,0-0.3765488-0.6431274-0.7513733c-0.7513733-0.5348282-0.9130096-0.8846855-0.9130096-1.6077385V16.7091846
		c0-0.7763872,1.5561371-1.7693195,2.8956146-1.7693195c1.2878876,0,2.2791901,0.9929323,2.2791901,1.7693195v28.4712238
		c0,2.3324928,0.6164398,3.2438202,2.0375824,4.5050316h10.3478699c0.4281616,0,0.6980896-0.3765259,0.6980896-0.6980858v-2.0375748
		c0-0.4831696-0.081665-0.6697693-0.8580475-1.3944969c-0.6980438-0.7496986-0.7780151-0.8579941-0.7780151-1.1795311V15.5029621
		c0-4.5299978-2.9489594-7.2106972-7.4256134-7.2106972c-4.1551819,0-6.4876404,2.090909-9.4099121,4.6099749
		c-1.0729523-1.7426777-2.7889862-4.5299978-7.2390137-4.5299978
		C143.9332123,8.372242,141.1459503,10.7580462,139.0817108,12.6606808 M234.9498901,39.7390823l2.06427,9.3282471
		c0.21492,0.9113312,1.0729523,0.9929581,2.0109253,0.9929581c2.250824,0,2.3858032-0.2682266,2.5457153-1.099575
		c0-0.1882782,0.0550079-0.7514,0.4298859-0.7514c0.5630951,0,1.4194641,0.2948952,1.9559174,0.5631218
		c2.145874,1.1262474,3.3787842,1.3145218,4.5050354,1.3145218c3.9668427,0,8.6584778-2.7889709,8.6584778-10.0796204
		c0-6.2743568-3.1088562-10.9659863-6.8091888-15.6576176c-0.133255-0.24156-1.126236-1.3661785-1.3677979-1.5810966
		l-0.9913025-1.4477825c-0.21492-0.1616325-0.4015198-0.401516-0.4015198-0.4564781
		c-1.2878723-1.6610737-4.0751953-5.3613987-4.0751953-6.7825394c0-0.6964102,0.4831696-1.4744768,1.5011139-1.4744768
		c1.9842834,0,4.6116486,2.9489527,5.977829,4.8532648c0.992981,1.4211407,1.3945007,1.7426777,3.3254547,1.7426777
		c1.982605,0,2.2791443-0.321537,1.982605-1.5011177l-2.0642548-8.3919573
		c-0.2398834-0.9113274-0.5630951-0.9379702-1.5544128-0.9379702c-1.9026794,0-2.3858032,0-2.6806946,0.9113283
		c-0.0799713,0.3748732-0.2416077,0.5631485-0.6431274,0.5631485c-0.21492,0-0.5897369,0.2149172-1.7693176-0.3748732
		c-2.145874-1.0996037-3.3520966-1.2611856-4.4233856-1.2611856c-2.9755859,0-8.6601563,1.7426786-8.6601563,9.6247721
		c0,4.0485554,1.394455,6.8091812,4.2634277,11.33918c0.6164398,0.966341,1.0712891,1.6627522,2.9756012,4.1035175
		c2.064209,2.7339859,6.1660461,7.9087868,6.1660461,10.5078316c0,1.4761009-0.8313446,1.6627007-1.6094055,1.6627007
		c-1.6343842,0-2.9222717-0.5364571-5.6296082-4.824894c-0.9113312-1.4744759-1.2861938-1.7960129-2.6273651-1.7960129
		C235.9411926,38.8260765,234.7883148,38.9077301,234.9498901,39.7390823 M115.4087067,7.2992811
		c3.5920029,0,6.5409317-1.6077385,6.5409317-3.5919769c0-2.0109315-2.9489288-3.6203477-6.5409317-3.6203477
		c-3.6186981,0-6.5409546,1.6094164-6.5409546,3.6203477C108.8677521,5.6915426,111.7900085,7.2992811,115.4087067,7.2992811"/>
</g>
</svg>
